<svg id="svg_canvas" data-noselect="" viewBox="0 0 1600 1200" width="1600" height="1200" preserveAspectRatio="none" version="1.1" xmlns="http://www.w3.org/2000/svg" xmlns:xlink="http://www.w3.org/1999/xlink"><defs></defs> <g id="background" data-noselect=""> <!----></g> <g id="shape_NuxOlKUBBl" transform="translate(232.99999676856999,132.00000000000003) rotate(0,167,167) scale(1,1)" filter="" style="cursor: move; opacity: 1;"><g><rect fill="rgba(0,0,0,0)" width="354" height="354" x="-10" y="-10"></rect><svg version="1.1" id="图层_1" xmlns="http://www.w3.org/2000/svg" xmlns:xlink="http://www.w3.org/1999/xlink" x="0px" y="0px" width="334" height="334" viewBox="0 0 100 100" enable-background="new 0 0 100 100" xml:space="preserve" shapetype="ellipse" preserveAspectRatio="none" class="style-removed" data-parent="shape_NuxOlKUBBl">
	 <linearGradient class="" x1="0%" y1="0%" x2="0%" y2="100%" gradientTransform="translate(0.5,0.5) rotate(0) translate(-0.5,-0.5)">
		<stop id="stop1_dGxaznNElE" offset="0%" class="" stop-color="#05a"></stop>
		<stop id="stop2_mtDi5MjP9J" offset="100%" class="" stop-color="#0a5"></stop>
	</linearGradient>

	<radialGradient class="" cx="50%" cy="50%" r="50%" fx="50%" fy="50%">
		<stop offset="0%" class="" stop-color="#05a"></stop>
		<stop offset="100%" class="" stop-color="#0a5"></stop>
	</radialGradient>
	<clipPath id="f_ellipse_PZ1m9VChDD" class="">
		<ellipse fill="none" class="" stroke="#dddddd" stroke-width="1" stroke-miterlimit="10" cx="50" cy="50" rx="50" ry="50"></ellipse>
	</clipPath>
	<ellipse class="" fill="#3e3a39" opacity="1" cx="50" cy="50" rx="49" ry="49" stroke-width="0"></ellipse>
	<ellipse class="" fill="none" stroke="#dddddd" stroke-width="0" stroke-miterlimit="10" cx="50" cy="50" rx="50" ry="50" clip-path="url(#f_ellipse_PZ1m9VChDD)"></ellipse>
</svg></g></g><g id="shape_BY7VRIxT87" transform="translate(277.35939169528,174.13511472760004) rotate(0,120.75883838384,120.75883838384) scale(1,1)" filter="" style="cursor: move; opacity: 1;"><g><rect fill="rgba(0,0,0,0)" width="245.51767676768" height="245.51767676768" x="-10" y="-10"></rect><svg version="1.1" id="图层_1" xmlns="http://www.w3.org/2000/svg" xmlns:xlink="http://www.w3.org/1999/xlink" x="0px" y="0px" viewBox="-10.055619730138146 -10.055619730138146 303.57623946027627 303.57623946027627" style="enable-background:new 0 0 283.465 283.465;" xml:space="preserve" width="241.51767676768" height="241.51767676768" preserveAspectRatio="none" class="style-removed" data-parent="shape_BY7VRIxT87">
<circle cx="141.732" cy="141.732" r="138.75" fill="none" stroke="#3e3a39" stroke-width="5.027809865069073" stroke-miterlimit="10" stroke-dasharray=""></circle>
</svg></g></g><g id="shape_Ne5rTTKPsj" transform="translate(248.76782226563,168.29185485840003) rotate(0,151.23217450294,139.49489533598) scale(1,1)" filter="" style="cursor: move; opacity: 1;"><g><rect fill="rgba(0,0,0,0)" width="322.46434900588" height="298.98979067195" x="-10" y="-10"></rect><svg version="1.1" id="图层_1" xmlns="http://www.w3.org/2000/svg" xmlns:xlink="http://www.w3.org/1999/xlink" x="0px" y="0px" viewBox="0 0 283.465 261.465" style="enable-background:new 0 0 283.465 261.465;" xml:space="preserve" width="302.46434900588" height="278.98979067195" preserveAspectRatio="none" class="style-removed" data-parent="shape_Ne5rTTKPsj">
<path d="M83.005,6.542c-0.84,0.437-1.677,0.885-2.505,1.339
	c1.59-1.796,2.276-3.979,2.891-6.874C76.308,3.049,74.062,5.65,73.21,12.057l0.105,0.086c-1.498,0.952-2.978,1.937-4.431,2.949
	c1.657-2.349,2.166-5.027,2.489-8.549C63.34,9.933,61.069,13.3,60.966,20.939l0.092,0.056c-1.111,0.904-2.204,1.826-3.279,2.765
	c1.153-2.647,1.271-5.505,1.109-9.126c-8.225,4.88-10.322,8.896-9.422,17.042c-0.915,0.952-1.812,1.915-2.701,2.896
	c0.512-2.576,0.179-5.241-0.484-8.495c-7.077,5.868-8.684,10.059-6.877,17.397c-1.207,1.595-2.375,3.223-3.508,4.879
	c0.578-3.453-0.237-6.716-1.674-10.808c-7.169,7.831-8.162,12.797-4.676,21.091c-1.179,2.124-2.301,4.288-3.364,6.484
	c0.517-4.09-0.803-7.505-3.048-11.858c-6.166,8.961-6.324,14.047-1.367,22.108c-1.159,3.048-2.206,6.153-3.134,9.31
	c0.359-5.215-1.666-8.876-5.115-13.583c-5.017,10.467-4.315,15.832,2.32,23.538l0.297-0.045c-0.747,3.541-1.348,7.14-1.796,10.788
	c-0.059-6.54-2.891-10.306-7.732-15.1c-3.534,11.862-1.899,17.389,6.375,24.396l0.564-0.188c-0.118,2.255-0.175,4.524-0.175,6.81
	c0,1.489,0.023,2.971,0.072,4.446c-0.119,0.657-0.225,1.339-0.308,2.063c-0.246-8.948-3.747-12.675-10.17-17.404
	c-1.763,12.253,0.664,17.484,9.873,23.202c0.364-0.178,0.715-0.357,1.059-0.539c0.359,3.942,0.891,7.833,1.593,11.663
	c-2.161-6.419-6.176-9.268-12.503-12.501c0.237,13.005,3.637,18.021,14.156,22.403l0.471-0.344c0.825,3.12,1.756,6.197,2.804,9.221
	c-3.524-7.247-8.547-9.781-16.361-12.347c2.524,14.361,7.161,19.328,19.576,22.354c0.17-0.167,0.337-0.331,0.497-0.497
	c0.822,1.876,1.682,3.732,2.589,5.559c-4.135-3.284-8.944-4.409-15.341-5.252c5.29,14.049,10.914,18.528,23.539,19.467
	c1.622,2.438,3.327,4.826,5.11,7.146c-5.65-3.838-11.388-4.172-19.239-3.701c8.53,13.86,15.408,17.224,29.356,15.377
	c1.772,1.815,3.597,3.581,5.472,5.29c-5.364-1.524-10.518-0.679-17.105,1.078c10.763,11.503,18.047,13.679,30.568,9.647
	c2.604,1.807,5.276,3.52,8.015,5.136c-6.569-0.686-12.107,1.495-19.123,5.16c14.337,9.773,22.656,10.303,35.188,2.865
	c5.285,2.193,10.744,4.052,16.356,5.539c-7.652,0.823-12.897,4.719-19.376,10.826c17.39,5.832,25.901,3.89,36.571-7.506
	c5.24,0.648,10.578,0.986,15.998,0.986c5.112,0,10.149-0.307,15.109-0.883c10.623,11.304,19.135,13.217,36.475,7.403
	c-6.289-5.928-11.412-9.77-18.699-10.745c5.513-1.444,10.881-3.252,16.084-5.383c12.305,7.189,20.599,6.565,34.781-3.102
	c-6.604-3.449-11.901-5.587-17.984-5.253c2.576-1.523,5.095-3.139,7.553-4.833c12.111,3.742,19.324,1.436,29.89-9.858
	c-6.032-1.61-10.864-2.454-15.754-1.412c1.708-1.571,3.374-3.187,4.998-4.842c13.365,1.591,20.129-1.92,28.48-15.49
	c-7.006-0.422-12.33-0.199-17.409,2.581c1.496-1.993,2.939-4.031,4.319-6.112c11.898-1.112,17.36-5.727,22.5-19.381
	c-5.635,0.742-10.034,1.705-13.827,4.165c0.642-1.338,1.267-2.686,1.87-4.052c12.19-3.03,16.775-8.028,19.277-22.277
	c-6.331,2.079-10.826,4.138-14.181,8.694c0.56-1.789,1.08-3.6,1.561-5.422c10.153-4.336,13.458-9.395,13.691-22.206
	c-5.016,2.567-8.582,4.887-10.919,8.941c0.389-2.517,0.704-5.057,0.945-7.624l0.12,0.06c9.211-5.718,11.637-10.949,9.876-23.202
	c-4.872,3.586-8.059,6.595-9.423,11.742l0.001-0.848c0-2.342-0.061-4.665-0.183-6.973c7.915-6.845,9.438-12.383,5.964-24.045
	c-3.782,3.742-6.334,6.857-7.302,11.158c-0.388-2.511-0.847-4.997-1.377-7.455c6.117-7.361,6.643-12.711,1.769-22.884
	c-2.757,3.765-4.604,6.857-5.051,10.614c-0.792-2.48-1.666-4.928-2.605-7.339c4.344-7.49,3.948-12.52-1.958-21.109
	c-1.836,3.557-3.05,6.486-3.153,9.669c-0.908-1.793-1.858-3.567-2.849-5.309c2.987-7.698,1.789-12.571-5.086-20.077
	c-1.204,3.431-1.975,6.283-1.848,9.148c-1.008-1.423-2.045-2.826-3.108-4.208c1.424-6.734-0.35-10.81-7.103-16.408
	c-0.553,2.722-0.877,5.031-0.671,7.221c-0.799-0.859-1.604-1.706-2.42-2.541c0.638-7.535-1.604-11.429-9.52-16.123
	c-0.131,3.06-0.066,5.579,0.653,7.885c-0.906-0.766-1.816-1.515-2.742-2.258c-0.229-7.163-2.597-10.43-10.392-13.72
	c0.275,2.957,0.674,5.317,1.777,7.389c-1.217-0.816-2.448-1.616-3.687-2.393c-0.902-6.027-3.219-8.545-10.109-10.531
	c0.517,2.424,1.082,4.344,2.182,5.959l-0.814-0.424c0.279,0.148,0.553,0.3,0.83,0.45c1.013,1.474,2.471,2.694,4.757,3.804
	c-5.073-1.62-7.839-0.349-11.719,2.396c6.595,3.305,10.007,2.918,14.945-1.136l-0.044-0.325c1.315,0.845,2.611,1.725,3.891,2.622
	c0.991,1.675,2.479,3.169,4.793,4.654c-5.734-2.614-9.158-1.503-14.098,1.169c7.278,4.803,11.341,4.826,17.706,0.762l-0.002-0.166
	c1.02,0.853,2.034,1.723,3.028,2.606c0.833,2.093,2.275,4.045,4.703,6.113c-5.959-3.767-9.927-3.053-15.812-0.832
	c7.346,6.424,11.85,7.065,19.522,3.518c0.021-0.184,0.044-0.372,0.064-0.558c0.915,0.978,1.815,1.97,2.699,2.975
	c0.459,2.288,1.583,4.515,3.743,7.036c-5.302-4.654-9.331-4.568-15.49-3.299c6.251,7.498,10.595,8.836,18.732,6.535
	c0.113-0.402,0.221-0.796,0.321-1.181c1.268,1.741,2.498,3.511,3.683,5.319c0.423,1.955,1.308,4.002,2.788,6.31
	c-5.171-5.979-9.654-6.499-16.689-6.032c5.793,9.277,10.411,11.429,19.798,10.118l0.114-0.264c1.446,2.719,2.802,5.495,4.057,8.328
	c0.314,1.118,0.756,2.298,1.337,3.569c-4.291-6.636-8.659-7.775-15.694-8.284c4.357,9.776,8.548,12.636,17.602,12.758
	c1.423,3.902,2.664,7.891,3.711,11.96c-3.269-5.972-7.492-7.679-14.078-9.208c2.887,10.693,6.688,14.468,15.658,16.145
	c0.693,3.48,1.247,7.008,1.656,10.585c-2.509-5.609-6.513-7.921-12.625-10.398c1.232,11.55,4.512,16.196,13.338,19.454
	c0.085,1.919,0.133,3.845,0.133,5.782c0,0.556-0.005,1.106-0.011,1.657c-1.891-4.501-5.277-7.05-10.219-9.958
	c-0.455,11.259,1.948,16.377,9.635,20.792c-0.345,3.62-0.841,7.195-1.482,10.721c-0.959-5.749-4.157-9.174-9.182-13.347
	c-2.416,11.825-0.676,17.531,6.91,23.529c-0.652,2.45-1.376,4.866-2.164,7.257c-0.141-6.388-3.071-10.695-7.847-16.116
	c-4.732,12.684-3.793,19.309,3.571,27.273c-1.919,4.383-4.072,8.639-6.447,12.748c-0.405,0.61-0.805,1.249-1.203,1.927
	c4.252-10.395,2.031-16.414-3.084-25.029c-7.864,13.022-7.796,20.232-0.587,30.888c-2.215,3.267-4.572,6.425-7.066,9.466
	c4.028-8.024,2.797-14.234-0.319-22.926c-10.593,11.715-12.133,19.165-7.152,31.261c-3.492,3.569-7.183,6.935-11.066,10.07
	c-0.865,0.555-1.75,1.173-2.66,1.859c8.37-8.455,8.633-15.246,7.11-25.748c-13.048,9.62-15.856,16.734-13.023,30.245
	c-4.996,3.392-10.244,6.436-15.71,9.095c-0.2,0.085-0.4,0.175-0.6,0.267c10.972-7.029,12.881-14.227,13.77-25.818
	c-16.214,7.139-20.936,14.056-21.166,29.1c-6.547,2.639-13.367,4.747-20.4,6.264c9.969-4.078,13.521-10.503,17.248-20.666
	c-18.08,2.547-24.841,8.047-29.334,22.662c-4.784,0.553-9.647,0.845-14.579,0.845c-5.278,0-10.481-0.331-15.593-0.967
	c-4.491-14.521-11.267-19.997-29.296-22.54c3.592,9.803,7.024,16.125,16.205,20.222c-6.673-1.559-13.147-3.645-19.369-6.218
	c-0.308-14.77-5.09-21.626-21.158-28.701c0.82,10.667,2.503,17.61,11.318,24.134c-4.764-2.47-9.35-5.234-13.741-8.263
	c2.627-13.135-0.284-20.181-13.145-29.66c-1.401,9.666-1.288,16.19,5.269,23.764c-4.079-3.311-7.953-6.868-11.595-10.651
	c4.631-11.685,2.947-19.066-7.438-30.554c-2.756,7.688-4.038,13.432-1.515,20.205c-1.879-2.423-3.678-4.919-5.384-7.476
	c6.726-10.26,6.61-17.436-1.072-30.157c-4.439,7.467-6.694,12.986-4.446,21.096c-2.06-3.712-3.938-7.541-5.63-11.471
	c6.756-7.65,7.498-14.248,2.908-26.544c-4.141,4.703-6.896,8.568-7.641,13.68c-0.559-1.807-1.081-3.634-1.562-5.475
	c6.904-5.769,8.433-11.484,6.103-22.874c-4.283,3.557-7.24,6.574-8.614,10.95c-0.471-2.929-0.845-5.889-1.119-8.88
	c6.951-4.293,9.142-9.443,8.703-20.237c-4.183,2.464-7.255,4.668-9.244,8.026c0.004-1.977,0.056-3.94,0.148-5.893
	c8.073-3.243,11.155-7.966,12.338-19.068c-5.166,2.096-8.822,4.07-11.349,8.014c0.378-2.835,0.849-5.635,1.406-8.404
	c8.242-1.778,11.86-5.661,14.634-15.942c-5.511,1.28-9.367,2.689-12.397,6.609c0.892-3.178,1.899-6.31,3.022-9.388
	c8.374-0.316,12.416-3.317,16.609-12.73c-6.017,0.434-10.083,1.333-13.821,5.738c1.326-3.061,2.765-6.064,4.319-8.999
	c8.931,1.112,13.463-1.155,19.114-10.206c-7.033-0.467-11.519,0.053-16.688,6.032c0.663-1.033,1.206-2.013,1.641-2.957
	c1.611-2.624,3.312-5.186,5.101-7.68l0.052,0.189c8.133,2.301,12.479,0.963,18.731-6.535c-6.16-1.268-10.191-1.355-15.486,3.299
	c1.631-1.911,2.67-3.649,3.28-5.373c1.14-1.341,2.308-2.659,3.501-3.953c7.503,3.403,11.986,2.702,19.243-3.645
	c-5.886-2.222-9.851-2.935-15.813,0.832c1.812-1.541,3.072-3.021,3.946-4.545c1.382-1.274,2.797-2.515,4.235-3.728
	c6.109,3.779,10.147,3.647,17.253-1.043c-4.936-2.672-8.362-3.783-14.096-1.169c1.648-1.055,2.874-2.116,3.805-3.249
	c1.659-1.211,3.348-2.378,5.068-3.512c4.812,3.875,8.222,4.195,14.712,0.945c-3.88-2.745-6.646-4.016-11.723-2.396
	c1.76-0.85,3.03-1.772,3.982-2.823C81.272,7.487,82.136,7.009,83.005,6.542z" fill-rule="evenodd" clip-rule="evenodd" fill="#ffffff" stroke-width="0"></path>
</svg></g></g><g id="shape_r7zwpPrnPj" transform="translate(340.1389118973,139.28675614174003) rotate(0,59.86148579661,18.231604089671) scale(1,1)" filter="" style="cursor: move; opacity: 1;"><g><rect fill="rgba(0,0,0,0)" width="139.72297159322" height="56.463208179343" x="-10" y="-10"></rect><svg version="1.1" id="图层_1" xmlns="http://www.w3.org/2000/svg" xmlns:xlink="http://www.w3.org/1999/xlink" x="0px" y="0px" viewBox="0 0 283.465 86.333" style="enable-background:new 0 0 283.465 86.333;" xml:space="preserve" width="119.72297159322" height="36.463208179343" preserveAspectRatio="none" class="style-removed" data-parent="shape_r7zwpPrnPj">
<g id="XMLID_16__hH5aLEWgGd_c">
	<polygon id="XMLID_8__9Xh5L1bE4D_c" points="141.732,10.673 148.385,24.154 163.262,26.316 152.497,36.809 
		155.039,51.626 141.732,44.63 128.426,51.626 130.967,36.809 120.202,26.316 135.079,24.154 	" fill="#ffffff" stroke-width="0"></polygon>
	<g id="XMLID_7__5AjdSqCJUq_c">
		<polygon id="XMLID_13__cfZZz4EuJl_c" points="196.731,23.482 198.421,36.402 210.023,42.335 198.257,47.935 
			196.2,60.802 187.238,51.342 174.365,53.362 180.592,41.916 174.694,30.297 187.504,32.682 		" fill="#ffffff" stroke-width="0"></polygon>
		<polygon id="XMLID_15__G3siTyuSPz_c" points="86.733,23.482 85.043,36.402 73.442,42.335 85.207,47.935 87.265,60.802 
			96.226,51.342 109.099,53.362 102.872,41.916 108.771,30.297 95.961,32.682 		" fill="#ffffff" stroke-width="0"></polygon>
	</g>
	<g id="XMLID_9__ZWJvREIIEv_c">
		<polygon id="XMLID_14__gNQ3YLCh3i_c" points="241.623,44.407 240.119,55.651 248.53,63.264 237.372,65.309 
			232.731,75.66 227.337,65.68 216.058,64.465 223.884,56.251 221.554,45.149 231.783,50.053 		" fill="#ffffff" stroke-width="0"></polygon>
		<polygon id="XMLID_10__nDNUkaY2vF_c" points="41.842,44.407 43.345,55.651 34.935,63.264 46.093,65.309 50.734,75.66 
			56.127,65.68 67.406,64.465 59.581,56.251 61.91,45.149 51.681,50.053 		" fill="#ffffff" stroke-width="0"></polygon>
	</g>
</g>
</svg></g></g><g id="shape_QpJbWncNCj" transform="translate(342.2899732326824,193.01948066276935) rotate(0,57.71002353588756,52.99025966861534) scale(1,1)" filter="" style="cursor: move; opacity: 1;"><g><rect fill="rgba(0,0,0,0)" width="135.42004707177512" height="125.98051933723067" x="-10" y="-10"></rect><svg xmlns="http://www.w3.org/2000/svg" viewBox="0.04904460906982422 -0.0026280919555574656 187.7857666015625 172.42787170410156" width="115.42004707177512" height="105.98051933723067" preserveAspectRatio="none" class="style-removed" data-parent="shape_QpJbWncNCj"><g><g fill-rule="evenodd"><path d="M92.45 158.31c-1.94-4.2-.91-4.62-8.51-13.8-7.83-9.47-13.79-13.44-20.12-20.19-3-3.16-15.27-12.83-18.11-15.71-1.54-1.57-2.14-2.54-3.81-3.33-6.89 3.43-4.32 11.7-1.22 17.24 3.68 6.6 7.67 8.66 6.81 11.39-1.4 4.42-10.69 8.65-20.07-3.38C15.37 115.08 12 88.41 22.6 72.89c1.56-2.29 3.23-6.69 1.61-10.14-1.19-2.54-6.55-4.25-9-1.49-22.64 25-20.09 68 8.77 86.3 10 6.36 23.72 10.58 35.83 15.33A136 136 0 0 1 77.25 171c3.59 2 5.48 1.71 9.9.19 3.54-1.22 4.22-2 5.29-3.71-.12-1.34-.18-2.87-.18-4.5s.07-3.3.19-4.67zM95.3 167.41c.88 1.44 1.53 2.23 4.3 3.36 8.87 3.62 9.56.66 16.5-2.74 24.15-11.85 51.28-14.22 64.49-37.95 5.44-9.77 8.49-24.29 6.76-37-1.86-13.72-7.19-22.07-13.92-30.72-.84-1.09-1.32-2.14-3.45-2.36a7.42 7.42 0 0 0-4.89 1c-6 4.12 1.55 14.14 2.46 16.06a40.57 40.57 0 0 1 2.91 8.7c2.77 12.6-.1 27.35-5.37 37.38-2.56 4.85-5.92 9.82-10 12.48-5.76 3.8-13.09 4-15.19-2.83 1-2 2.92-3.93 4.41-6a43.07 43.07 0 0 0 4-6.7c2.68-5.61 3.19-12-2.48-14.78-1.55.73-2.24 1.68-3.58 3.09l-10.87 9.34c-2.7 2.62-5 4-7.25 6.37-2.62 2.73-4.49 4.23-7 6.61a168 168 0 0 0-13.15 13.56c-7.49 8.95-7.52 10.85-8.78 14 .13 1.39.21 3 .21 4.72s0 3.07-.11 4.41z" fill="#ffffff" stroke-width="0"></path><path d="M24.89 117.09c0-10.69-2.64-14.23 1.92-28.76 4.71-15 11.19-15.2 5.65-22.78-4.69-.26-7 4.9-9.28 9.26a44.3 44.3 0 0 0-4.36 13.73 45 45 0 0 0 .63 16.21c.95 4.12 2.78 10.32 5.44 12.34zM162.9 117.09c2.66-2 4.48-8.22 5.43-12.34a45 45 0 0 0-7-35.52c-1.42-2.06-2.47-3.87-6-3.68-5.53 7.55.94 7.81 5.65 22.78 4.53 14.45 1.94 17.99 1.92 28.76z" fill="#ffffff" stroke-width="0"></path><path d="M32.27 124.34c.59-1.19.18-12 .41-14.85a81.11 81.11 0 0 1 2.44-14.67c2-7.43 6.76-16.69 6.93-18.68.31-3.6-.81-5.24-3.5-2.76-7.98 7.36-18.36 37.62-6.28 50.96zM155.43 117.25l-.13 7.09c11.6-12.57 3.71-37.52-4.11-48.67-4.24-6.06-7.39-3.27-4.9 2.85 1.61 4 3 5.68 4.91 11.32a87 87 0 0 1 4.23 27.41zM65.35 72.78c1 1 2.28 1.21 3.76 2 3.82 2 6.51 4.93 9.12 8.34a57.44 57.44 0 0 1 7.86 15.14c4.42 11.94 6 24.85 7.89 38.19 1.37-3.17 2.21-21.79 8.26-38.1 3.6-9.74 8.11-18.42 17-23.53 1.14-.66 2.76-1.23 3.82-1.93-3.43-1.72-16.71 1.63-21.89 4-8.63 3.92-5 4.35-12.56.44a43.41 43.41 0 0 0-23.26-4.55z" fill="#ffffff" stroke-width="0"></path><path d="M97.44 126.57c0 2.39-.2 6.67.79 8.39 1.94-3.22 2.07-5.89 6.36-12.07 8.48-12.19 22.18-19 38.53-18.45-1.46-2.5-7.06-4.29-10.44-5-2.72-.61-12-1.4-13.28-2-1.18-8.4 1.28-11.12 2.64-17.74-4.8 2.44-13.49 13-16.78 18.77a58.22 58.22 0 0 0-7.82 28.1zM68.65 94l-.13 3.44c-2.89.88-9.57 1.07-13.33 1.95-4 1-8.71 2.38-10.62 5 12.24.31 21.48 2.63 29.18 8.72a42.69 42.69 0 0 1 9.31 9.65c1.61 2.26 5.8 9.3 6.38 12.47.88-2.22.89-5.3.89-7.92A57.84 57.84 0 0 0 82.79 99c-3.09-5.3-11.5-16.44-17-19.18C67 84.89 68.65 87.67 68.65 94z" fill="#ffffff" stroke-width="0"></path><path d="M93 65.32c-7 2-4.35 14.52 2.73 12.09 6.46-2.22 4.08-14.02-2.73-12.09z" fill="#ffffff" stroke-width="0"></path><path d="M125.41 87.16c-6.84 1.73-4.43 11 2.54 9 6.05-1.75 4.61-10.81-2.54-9zM59.41 87.15c-6.49 1.67-2.79 11.06 4 8.91 5.83-1.84 2.47-10.57-4-8.91zM151.27 22.88a2.32 2.32 0 0 1-.08 3.4L139.37 37a2.63 2.63 0 0 1-3.58-.08 2.33 2.33 0 0 1 .07-3.4l11.83-10.75a2.65 2.65 0 0 1 3.58.11zM167.77 49.17a2.38 2.38 0 0 1-1.45 3.12l-15.26 5.61a2.59 2.59 0 0 1-3.28-1.37 2.37 2.37 0 0 1 1.45-3.12l15.26-5.61a2.58 2.58 0 0 1 3.28 1.37zM19.36 48.91a2.57 2.57 0 0 1 3.22-1.5l15.51 5a2.39 2.39 0 0 1 1.59 3A2.58 2.58 0 0 1 36.46 57L21 52a2.39 2.39 0 0 1-1.64-3.09zM35.51 23.14a2.64 2.64 0 0 1 3.58-.27L51.55 33a2.32 2.32 0 0 1 .28 3.38 2.62 2.62 0 0 1-3.57.27L35.8 26.53a2.33 2.33 0 0 1-.29-3.39zM62.15 5.5a2.61 2.61 0 0 1 3.36 1.21l6.73 14.17A2.36 2.36 0 0 1 71 24.06a2.61 2.61 0 0 1-3.36-1.21L60.89 8.68a2.36 2.36 0 0 1 1.26-3.18zM93.27 0a2.49 2.49 0 0 1 2.6 2.34l.44 15.54a2.46 2.46 0 0 1-2.47 2.46 2.48 2.48 0 0 1-2.6-2.34L90.8 2.47A2.47 2.47 0 0 1 93.27 0zM126.34 6.63a2.36 2.36 0 0 1 .94 3.29l-8.18 13.47a2.6 2.6 0 0 1-3.45.88 2.34 2.34 0 0 1-.94-3.28l8.17-13.47a2.62 2.62 0 0 1 3.46-.89z" fill="#ffffff" stroke-width="0"></path></g></g></svg></g></g><g id="shape_nTIw6GCafY" transform="translate(318.77073214756456,299.4517146816026) rotate(0,81.22926462100548,68.80416859052947) scale(1,1)" filter="" style="cursor: move; opacity: 1;"><g><svg xmlns="http://www.w3.org/2000/svg" version="1.1" xmlns:xlink="http://www.w3.org/1999/xlink" width="201.49668304513818" height="137.60833718105897" viewBox="0 0 174.45978417094335 119.144" data-parent="shape_nTIw6GCafY"><rect fill="rgba(0,0,0,0)" width="106.85978417094337" height="16" x="16.9" y="51.571999999999996"></rect><g data-width="73.59949999999999" transform="translate(33.53014208547169, 0)"><line x1="0" x2="73.59949999999999" y1="67.25200000000001" y2="67.25200000000001" stroke="rgb(255, 255, 255)" stroke-width="0" stroke-opacity="1"></line></g><g data-width="73.59949999999999" transform="translate(33.53014208547169, 0)"></g><g data-width="73.59949999999999" transform="translate(33.53014208547169, 0)"><path d="M6.37 0.22L6.37 0.22Q4.83 0.22 3.62-0.54Q2.40-1.30 1.69-2.74Q0.98-4.17 0.98-6.19L0.98-6.19Q0.98-8.20 1.70-9.63Q2.42-11.07 3.66-11.85Q4.90-12.62 6.47-12.62L6.47-12.62Q7.60-12.62 8.47-12.17Q9.33-11.71 9.87-11.09L9.87-11.09L9.02-10.07Q8.55-10.60 7.92-10.93Q7.28-11.26 6.49-11.26L6.49-11.26Q4.73-11.26 3.66-9.90Q2.59-8.55 2.59-6.24L2.59-6.24Q2.59-3.89 3.63-2.52Q4.66-1.15 6.44-1.15L6.44-1.15Q7.33-1.15 8.03-1.51Q8.72-1.88 9.31-2.53L9.31-2.53L10.17-1.55Q9.45-0.69 8.51-0.24Q7.57 0.22 6.37 0.22Z" transform="translate(0 65.572) skewX(0)" fill="rgb(255, 255, 255)" stroke="rgb(255, 255, 255)" stroke-width="0.028" data-glyph-w="10.7822" data-glyph-h="16.9" data-glyph-ascender="14.871999999999998" data-glyph-descender="-2.0279999999999996"></path><path d="M2.59-6.24L2.59-6.24Q2.59-3.87 3.59-2.47Q4.60-1.06 6.27-1.06L6.27-1.06Q7.93-1.06 8.94-2.47Q9.95-3.87 9.95-6.24L9.95-6.24Q9.95-8.57 8.94-9.91Q7.93-11.26 6.27-11.26L6.27-11.26Q4.60-11.26 3.59-9.91Q2.59-8.57 2.59-6.24ZM11.53 1.62L11.53 1.62L11.83 2.84Q11.17 3.11 10.06 3.11L10.06 3.11Q8.35 3.11 7.19 2.29Q6.03 1.47 5.51 0.17L5.51 0.17Q3.45-0.14 2.21-1.83Q0.98-3.52 0.98-6.24L0.98-6.24Q0.98-9.21 2.46-10.92Q3.94-12.62 6.27-12.62L6.27-12.62Q8.60-12.62 10.08-10.92Q11.56-9.21 11.56-6.24L11.56-6.24Q11.56-3.57 10.37-1.89Q9.18-0.22 7.18 0.15L7.18 0.15Q7.60 0.98 8.41 1.39Q9.21 1.81 10.22 1.81L10.22 1.81Q11.07 1.81 11.53 1.62Z" transform="translate(10.7822 65.572) skewX(0)" fill="rgb(255, 255, 255)" stroke="rgb(255, 255, 255)" stroke-width="0.028" data-glyph-w="12.5398" data-glyph-h="16.9" data-glyph-ascender="14.871999999999998" data-glyph-descender="-2.0279999999999996"></path><path d="M9.02 0L1.69 0L1.69-12.39L8.84-12.39L8.84-11.07L3.26-11.07L3.26-7.18L7.96-7.18L7.96-5.85L3.26-5.85L3.26-1.34L9.02-1.34L9.02 0Z" transform="translate(23.322 65.572) skewX(0)" fill="rgb(255, 255, 255)" stroke="rgb(255, 255, 255)" stroke-width="0.028" data-glyph-w="9.937199999999999" data-glyph-h="16.9" data-glyph-ascender="14.871999999999998" data-glyph-descender="-2.0279999999999996"></path><path d="M5.14 0.22L5.14 0.22Q3.82 0.22 2.71-0.27Q1.61-0.76 0.79-1.62L0.79-1.62L1.72-2.69Q3.23-1.15 5.15-1.15L5.15-1.15Q6.37-1.15 7.06-1.71Q7.76-2.26 7.76-3.18L7.76-3.18Q7.76-3.82 7.49-4.20Q7.22-4.58 6.75-4.85Q6.29-5.12 5.70-5.37L5.70-5.37L3.90-6.15Q3.31-6.39 2.74-6.79Q2.16-7.20 1.77-7.82Q1.39-8.43 1.39-9.33L1.39-9.33Q1.39-10.77 2.49-11.69Q3.60-12.62 5.29-12.62L5.29-12.62Q6.39-12.62 7.33-12.20Q8.28-11.78 8.94-11.09L8.94-11.09L8.11-10.09Q7.54-10.63 6.84-10.94Q6.15-11.26 5.29-11.26L5.29-11.26Q4.24-11.26 3.61-10.77Q2.97-10.28 2.97-9.43L2.97-9.43Q2.97-8.84 3.29-8.45Q3.60-8.06 4.06-7.82Q4.53-7.57 5.02-7.37L5.02-7.37L6.79-6.61Q7.52-6.30 8.10-5.88Q8.67-5.46 9.01-4.84Q9.35-4.22 9.35-3.30L9.35-3.30Q9.35-1.83 8.21-0.80Q7.08 0.22 5.14 0.22Z" transform="translate(33.2592 65.572) skewX(0)" fill="rgb(255, 255, 255)" stroke="rgb(255, 255, 255)" stroke-width="0.028" data-glyph-w="10.0893" data-glyph-h="16.9" data-glyph-ascender="14.871999999999998" data-glyph-descender="-2.0279999999999996"></path><path d="M4.77-8.87L1.94-4.65L5.73-4.65L5.73-8.45Q5.73-9.16 5.80-10.21L5.80-10.21Q5.81-10.48 5.83-10.70L5.83-10.70L5.76-10.70Q5.31-9.79 4.77-8.87L4.77-8.87ZM7.20-4.65L8.84-4.65L8.84-3.41L7.20-3.41L7.20 0L5.73 0L5.73-3.41L0.34-3.41L0.34-4.43L5.49-12.39L7.20-12.39L7.20-4.65Z" transform="translate(43.3485 65.572) skewX(0)" fill="rgb(255, 255, 255)" stroke="rgb(255, 255, 255)" stroke-width="0.028" data-glyph-w="9.379499999999998" data-glyph-h="16.9" data-glyph-ascender="14.871999999999998" data-glyph-descender="-2.0279999999999996"></path><path d="M6.37 0.22L6.37 0.22Q4.83 0.22 3.62-0.54Q2.40-1.30 1.69-2.74Q0.98-4.17 0.98-6.19L0.98-6.19Q0.98-8.20 1.70-9.63Q2.42-11.07 3.66-11.85Q4.90-12.62 6.47-12.62L6.47-12.62Q7.60-12.62 8.47-12.17Q9.33-11.71 9.87-11.09L9.87-11.09L9.02-10.07Q8.55-10.60 7.92-10.93Q7.28-11.26 6.49-11.26L6.49-11.26Q4.73-11.26 3.66-9.90Q2.59-8.55 2.59-6.24L2.59-6.24Q2.59-3.89 3.63-2.52Q4.66-1.15 6.44-1.15L6.44-1.15Q7.33-1.15 8.03-1.51Q8.72-1.88 9.31-2.53L9.31-2.53L10.17-1.55Q9.45-0.69 8.51-0.24Q7.57 0.22 6.37 0.22Z" transform="translate(52.728 65.572) skewX(0)" fill="rgb(255, 255, 255)" stroke="rgb(255, 255, 255)" stroke-width="0.028" data-glyph-w="10.7822" data-glyph-h="16.9" data-glyph-ascender="14.871999999999998" data-glyph-descender="-2.0279999999999996"></path><path d="M5.14 0.22L5.14 0.22Q3.82 0.22 2.71-0.27Q1.61-0.76 0.79-1.62L0.79-1.62L1.72-2.69Q3.23-1.15 5.15-1.15L5.15-1.15Q6.37-1.15 7.06-1.71Q7.76-2.26 7.76-3.18L7.76-3.18Q7.76-3.82 7.49-4.20Q7.22-4.58 6.75-4.85Q6.29-5.12 5.70-5.37L5.70-5.37L3.90-6.15Q3.31-6.39 2.74-6.79Q2.16-7.20 1.77-7.82Q1.39-8.43 1.39-9.33L1.39-9.33Q1.39-10.77 2.49-11.69Q3.60-12.62 5.29-12.62L5.29-12.62Q6.39-12.62 7.33-12.20Q8.28-11.78 8.94-11.09L8.94-11.09L8.11-10.09Q7.54-10.63 6.84-10.94Q6.15-11.26 5.29-11.26L5.29-11.26Q4.24-11.26 3.61-10.77Q2.97-10.28 2.97-9.43L2.97-9.43Q2.97-8.84 3.29-8.45Q3.60-8.06 4.06-7.82Q4.53-7.57 5.02-7.37L5.02-7.37L6.79-6.61Q7.52-6.30 8.10-5.88Q8.67-5.46 9.01-4.84Q9.35-4.22 9.35-3.30L9.35-3.30Q9.35-1.83 8.21-0.80Q7.08 0.22 5.14 0.22Z" transform="translate(63.5102 65.572) skewX(0)" fill="rgb(255, 255, 255)" stroke="rgb(255, 255, 255)" stroke-width="0.028" data-glyph-w="10.0893" data-glyph-h="16.9" data-glyph-ascender="14.871999999999998" data-glyph-descender="-2.0279999999999996"></path></g></svg></g></g><g id="shape_xquc39Ngi6" transform="translate(277.2722027609724,178.03936019437504) rotate(0,122.72819493293764,151.24739) scale(1,1)" filter="" style="cursor: move; opacity: 1;"><g><svg xmlns="http://www.w3.org/2000/svg" version="1.1" xmlns:xlink="http://www.w3.org/1999/xlink" width="331.87638986587524" height="302.49478" viewBox="0 0 331.87638986587524 302.49478" data-parent="shape_xquc39Ngi6"><rect fill="rgba(0,0,0,0)" width="159.03638986587526" height="43" x="43.21" y="129.74739"></rect><g data-width="159.0128" transform="translate(43.221794932937634, 0)"><line x1="0" x2="159.0128" y1="171.88738999999998" y2="171.88738999999998" stroke="#ffffff" stroke-width="0" stroke-opacity="1"></line></g><g data-width="159.0128" transform="translate(43.221794932937634, 0)"></g><g data-width="159.0128" transform="translate(43.221794932937634, 0)"><path d="M0.91 0L0.91-4.19L12.83-4.19L12.83 0L0.91 0ZM12.70-20.57L8.60-10.15L12.83-10.15L12.83-5.88L6.91-5.88L4.45-5.88L0.91-5.88L5.06-16.33L2.94-16.33L0.91-16.33L6.74-31.11L12.70-31.11L8.60-20.57L9.98-20.57L12.70-20.57ZM14.17-21.61L38.02-21.61L38.02-17.37L14.17-17.37L14.17-21.61ZM38.85-11.10L29.56-11.10L29.56-4.71Q29.56-3.72 29.19-2.85Q28.82-1.99 28.17-1.36Q27.52-0.73 26.66-0.37Q25.80 0 24.85 0L24.85 0L19.88 0L21.43-4.19L22.21-4.19Q22.81-4.19 23.20-4.58Q23.59-4.97 23.59-5.57L23.59-5.57L23.59-11.10L13.31-11.10L13.31-15.34L38.85-15.34L38.85-11.10ZM29.21-29.34L34.78-29.34Q36.47-29.34 37.66-28.15Q38.85-26.96 38.85-25.28L38.85-25.28L38.85-22.81L32.88-22.81L32.88-24.02Q32.88-24.46 32.58-24.76Q32.28-25.06 31.85-25.06L31.85-25.06L19.31-25.06L19.31-22.81L13.31-22.81L13.31-29.34L22.69-29.34L21.86-31.11L28.43-31.11L29.21-29.34ZM15.12-9.68L20.65-9.68L18.84 0L13.31 0L15.12-9.68ZM31.54-9.68L37.07-9.68L38.85 0L33.36 0L31.54-9.68Z" transform="translate(0 166.74739) skewX(0)" fill="#ffffff" stroke="#ffffff" stroke-width="0.072" data-glyph-w="39.7532" data-glyph-h="43.21" data-glyph-ascender="37.11739" data-glyph-descender="-6.09261"></path><path d="M11.15-24.59L4.10-24.59L0.95-31.15L7.99-31.15L11.15-24.59ZM3.46-4.71L3.46-17.85L0.91-17.85L0.91-22.12L3.46-22.12L9.33-22.12L9.42-22.12L9.42-5.06Q9.42-4.49 9.83-4.10Q10.24-3.72 10.80-3.72L10.80-3.72L13.35-3.72L11.67 0.04L8.21 0.04Q7.22 0.04 6.35-0.32Q5.49-0.69 4.84-1.34Q4.19-1.99 3.82-2.85Q3.46-3.72 3.46-4.71L3.46-4.71ZM29.81-15.64L32.58-24.98L38.85-24.98L36.08-15.64L29.81-15.64ZM17.76-24.37L20.57-15.64L14.30-15.64L11.49-24.37L17.76-24.37ZM12.10-26.88L12.10-31.15L37.90-31.15L37.90-26.88L28.09-26.88L28.09-13.74L38.85-13.74L38.85-9.46L28.09-9.46L28.09 0.04L22.12 0.04L22.12-9.46L11.15-9.46L11.15-13.74L22.12-13.74L22.12-26.88L12.10-26.88Z" transform="translate(39.7532 166.74739) skewX(0)" fill="#ffffff" stroke="#ffffff" stroke-width="0.072" data-glyph-w="39.7532" data-glyph-h="43.21" data-glyph-ascender="37.11739" data-glyph-descender="-6.09261"></path><path d="M9.90-8.21L6.65 0L1.04 0L4.23-8.21L9.90-8.21ZM29.99-8.21L35.65-8.21L38.85 0L33.19 0L29.99-8.21ZM0.91-24.20L0.91-29.08L38.85-31.15L38.85-26.27L22.64-25.36L16.81-21.56L18.62-21.56L20.40-21.56L27.78-21.56L16.81-14.43L29.56-14.43L27.22-17.80L33.44-17.80L38.85-10.02L36.21-10.02L32.62-10.02L24.50-10.02L24.50-4.71Q24.50-3.72 24.11-2.85Q23.72-1.99 23.07-1.34Q22.43-0.69 21.56-0.32Q20.70 0.04 19.75 0.04L19.75 0.04L11.06 0.04L13.44-4.36L16.29-4.36Q16.85-4.36 17.24-4.75Q17.63-5.14 17.63-5.75L17.63-5.75L17.63-10.02L10.02-10.02L1.04-10.02L0.91-10.02L11.88-17.15L10.02-17.15L2.98-17.15L0.91-17.15L12.66-24.85L0.91-24.20Z" transform="translate(79.5064 166.74739) skewX(0)" fill="#ffffff" stroke="#ffffff" stroke-width="0.072" data-glyph-w="39.7532" data-glyph-h="43.21" data-glyph-ascender="37.11739" data-glyph-descender="-6.09261"></path><path d="M38.85-28.04L38.85-23.77L23.68-23.77L21.35-18.10L32.02-18.10L30.98-21.17L35.99-21.17L38.72-13.35L33.66-13.35L33.44-13.96L32.75-13.96L32.75-5.62Q32.75-5.01 33.14-4.62Q33.53-4.23 34.14-4.23L34.14-4.23L38.37-4.23L36.47 0.04L31.20 0.04Q29.56 0.04 28.43-1.10Q27.31-2.25 27.31-3.89L27.31-3.89L27.31-13.96L23.29-13.96L20.61 0.04L14.91 0.04L17.59-13.96L13.18-13.96L17.37-23.77L14.60-23.77L14.60-28.04L24.02-28.04L22.60-31.20L29.43-31.20L30.81-28.04L38.85-28.04ZM13.35-5.96L0.91-5.96L6.01-16.68L0.91-16.68L7.30-30.55L14.00-30.55L9.03-20.57L10.02-20.57L13.35-20.57L8.51-9.90L13.35-9.90L13.35-5.96ZM0.91 0.04L0.91-3.89L13.35-3.89L13.35 0.04L0.91 0.04Z" transform="translate(119.2596 166.74739) skewX(0)" fill="#ffffff" stroke="#ffffff" stroke-width="0.072" data-glyph-w="39.7532" data-glyph-h="43.21" data-glyph-ascender="37.11739" data-glyph-descender="-6.09261"></path></g></svg></g></g> <g id="rectBox"><rect id="rect_shape_NuxOlKUBBl" width="334" height="334" transform="translate(232.99999676856999,132.00000000000003) rotate(0,167,167) scale(1,1)" fill="rgba(0,0,0,0)" stroke="transparent" style="cursor: move;"></rect><rect id="rect_shape_BY7VRIxT87" width="225.51767676768" height="225.51767676768" transform="translate(285.35939169528,182.13511472760004) rotate(0,112.75883838384,112.75883838384) scale(1,1)" fill="rgba(0,0,0,0)" stroke="transparent" style="cursor: move;"></rect><rect id="rect_shape_Ne5rTTKPsj" width="302.46434900588" height="278.98979067195" transform="translate(248.76782226563,168.29185485840003) rotate(0,151.23217450294,139.49489533598) scale(1,1)" fill="rgba(0,0,0,0)" stroke="transparent" style="cursor: move;"></rect><rect id="rect_shape_r7zwpPrnPj" width="119.72297159322" height="36.463208179343" transform="translate(340.1389118973,139.28675614174003) rotate(0,59.86148579661,18.231604089671) scale(1,1)" fill="rgba(0,0,0,0)" stroke="transparent" style="cursor: move;"></rect><rect id="rect_shape_QpJbWncNCj" width="115.42004707177512" height="105.98051933723067" transform="translate(342.2899732326824,193.01948066276935) rotate(0,57.71002353588756,52.99025966861534) scale(1,1)" fill="rgba(0,0,0,0)" stroke="transparent" style="cursor: move;"></rect><rect id="rect_shape_nTIw6GCafY" width="123.42037543888371" height="18.479599433433012" transform="translate(338.28980904912817,359.01608355541555) rotate(0,61.710187719441855,9.239799716716506) scale(1,1)" fill="rgba(0,0,0,0)" stroke="transparent" style="cursor: move;" class=""></rect><rect id="rect_shape_xquc39Ngi6" width="159.03638986587526" height="43" transform="translate(320.48220276097237,307.78675019437503) rotate(0,79.51819493293763,21.5) scale(1,1)" fill="rgba(0,0,0,0)" stroke="transparent" style="cursor: move;"></rect></g> <!----></svg>